<svg xmlns="http://www.w3.org/2000/svg" viewBox="0 0 114.3 114.3"><g fill="#cadfdf"><path d="M71.756 62.259V43.766c-.008-.799.024-1.977-.462-3.097a3.334 3.334 0 00-1.253-1.489c-.602-.385-1.367-.587-2.267-.586-.904-.001-1.672.207-2.274.6-.911.592-1.335 1.519-1.523 2.35-.192.839-.184 1.65-.186 2.222v19.375h7.965v-.882"/><path d="M81.146 43.326L58.176 3.54c14.404.27 27.406 6.21 36.89 15.692 9.708 9.71 15.706 23.104 15.706 37.917 0 9.408-2.423 18.242-6.676 25.926zM63.79 66.127V81.15h-3.316V66.127h-2.023v-2.986h2.023V43.766c.008-3.344 1.067-5.394 2.474-6.68 1.409-1.283 3.258-1.808 4.891-1.808 1.151-.007 3.944.272 5.559 2.414 1.689 2.39 1.663 4.082 1.674 6.074V81.15h-3.317V66.128zm31.276 28.94c-9.71 9.706-23.104 15.704-37.917 15.705-14.812-.001-28.207-6-37.917-15.705a53.895 53.895 0 01-7.982-10.18h91.799a53.887 53.887 0 01-7.983 10.18zm-52.62-28.94V81.15h-3.315V66.127h-2.024v-2.986h2.024V43.766c.009-3.344 1.068-5.394 2.473-6.68 1.41-1.283 3.258-1.808 4.892-1.808 1.151-.007 3.944.272 5.559 2.414 1.69 2.391 1.662 4.082 1.675 6.074v37.383h-3.317V66.127zM3.529 57.15c.001-14.813 6-28.207 15.705-37.917C28.718 9.751 41.72 3.811 56.125 3.541l-22.97 39.785-22.95 39.75C5.952 75.394 3.53 66.56 3.528 57.15zM57.15 0C25.587 0 .002 25.586 0 57.15c.002 31.564 25.587 57.149 57.15 57.15 31.564-.001 57.15-25.586 57.15-57.15S88.714 0 57.15 0"/><path d="M50.414 62.259V43.766c-.007-.799.022-1.977-.464-3.097a3.332 3.332 0 00-1.252-1.489c-.602-.385-1.367-.587-2.267-.586-.904-.001-1.672.207-2.274.6-.911.592-1.335 1.519-1.523 2.35-.192.839-.185 1.65-.186 2.222v19.375h7.966v-.882M25.57 48.82l-3.851-2.225-.729 1.262 3.9 2.253c.718.415.93 1 .44 1.849-.334.577-.973.846-1.798.37l-3.843-2.22-.728 1.261 3.925 2.268c.603.326 1.153.479 1.702.367.89-.19 1.489-.921 1.803-1.466.863-1.493.738-2.819-.82-3.719m-.951-7.251l4.124 2.382-.01.016-5.48-.031-.754 1.302 5.922 3.421.667-1.155-4.223-2.439.01-.016 5.618.023.714-1.237-5.92-3.42-.668 1.154m1.419-2.459l5.92 3.421.715-1.237-5.92-3.42-.715 1.236m3.286-3.27l4.873 2.815.715-1.237-4.874-2.816 1.034-1.79-1.047-.604-2.782 4.816 1.047.605 1.034-1.79m8.051-2.689l.715-1.236-2.218-1.282-2.56-4.118-.81 1.402 1.897 2.657-3.283-.257-.843 1.459 4.867.085 2.235 1.29m40.313-2.713c1.064-.614 1-1.488.768-2.346l-.412-1.533c-.074-.261-.177-.667.285-.934.536-.31 1.007.106 1.257.539.574.994 0 1.448-.247 1.63l.632 1.093c.721-.427 1.65-1.56.686-3.23-1.02-1.769-2.372-1.424-3.032-1.043-1.303.753-1.027 1.727-.741 2.736l.189.67c.184.663.297 1.144-.165 1.411-.626.362-1.112-.156-1.424-.695-.574-.995-.035-1.508.291-1.707l-.631-1.092c-.734.424-1.782 1.484-.634 3.473.276.478 1.397 2.057 3.178 1.028m.277 2.174l1.534-.885 1.533 2.656 1.047-.605-1.533-2.656 1.245-.72 1.67 2.892 1.047-.605-2.313-4.008-5.922 3.42 2.388 4.137 1.048-.605-1.744-3.02m6.643 2.611l.82 1.42c.385.667-.002 1.063-.316 1.244-.585.338-.974.178-1.316-.413l-.771-1.336zm-1.713 5.261c1.105-.638 1.146-.986 1.101-1.558.51.425 1.245.404 1.897.028.512-.295 1.521-1.233.684-2.682l-1.59-2.755-5.922 3.42.644 1.116 2.318-1.34.679 1.177c.486.843.199 1.07-.61 1.536-.609.353-.888.575-1.124.813l.726 1.26.158-.091c-.042-.3.173-.424 1.039-.924m6.726 1.062l-5.17 1.407-.008-.015 3.811-3.76-.705-1.223-4.86 5.257.626 1.086 6.99-1.568-.684-1.184m.916 1.584l-5.922 3.42.657 1.139 5.922-3.421-.657-1.138m-.086 8.843l-.657-1.139c-.805.282-1.446.066-1.81-.564-.556-.963.177-1.903 1.24-2.518 1.674-.967 2.535-.39 2.85.156.544.94-.024 1.501-.325 1.797l.657 1.138c.839-.565 1.678-1.93.736-3.563-.81-1.403-2.501-1.894-4.571-.699-2.046 1.182-2.509 2.836-1.672 4.286.789 1.366 2.134 1.621 3.552 1.106m-1.662 1.805l2.388 4.136 1.047-.605-1.744-3.02 1.534-.886 1.534 2.656 1.047-.605-1.534-2.656 1.246-.72 1.669 2.892 1.047-.605-2.313-4.007-5.921 3.42M34.688 89.433h-1.676v-1.828h1.781c.838 0 1 .533 1 .895 0 .676-.362.933-1.105.933zm2.343 2.286c0-1.276-.305-1.486-.867-1.733.677-.229 1.057-.876 1.057-1.629 0-.59-.333-1.933-2.152-1.933h-3.456v6.837h1.4v-2.675h1.475c1.058 0 1.114.362 1.114 1.295 0 .704.058 1.057.153 1.38h1.58v-.18c-.304-.115-.304-.363-.304-1.362m2.863-1.439h3.333v-1.209h-3.333v-1.437h3.629v-1.21h-5.029v6.837h5.19v-1.209h-3.79v-1.771m7.799-2.8c1.18 0 1.4.772 1.514 1.181h1.428c-.076-1.01-.904-2.418-2.951-2.418-1.762 0-3.143 1.218-3.143 3.608 0 2.362 1.305 3.59 3.124 3.59 1.713 0 2.685-1.038 2.97-2.523h-1.428c-.171.838-.724 1.285-1.514 1.285-1.21 0-1.695-1.104-1.695-2.332 0-1.934 1.01-2.39 1.695-2.39m7.005 4.751c-.771 0-1.857-.476-1.857-2.39 0-1.914 1.086-2.39 1.857-2.39.771 0 1.857.476 1.857 2.39 0 1.914-1.086 2.39-1.857 2.39zm0-5.99c-.905 0-3.286.39-3.286 3.6s2.381 3.6 3.286 3.6c.904 0 3.285-.39 3.285-3.6s-2.38-3.6-3.285-3.6m7.089 7.018l2.324-6.837h-1.486l-1.485 5.18h-.02l-1.466-5.18h-1.533l2.305 6.837h1.361m8.417-1.209h-3.79v-1.771h3.333v-1.21h-3.333v-1.437h3.628v-1.21h-5.028v6.837h5.19v-1.209m2.563-4.447h1.78c.838 0 1 .533 1 .895 0 .676-.361.933-1.104.933h-1.676zm0 2.98h1.476c1.057 0 1.114.363 1.114 1.296 0 .704.057 1.057.152 1.38h1.581v-.18c-.305-.115-.305-.363-.305-1.362 0-1.276-.305-1.486-.866-1.733.676-.229 1.057-.876 1.057-1.629 0-.59-.334-1.933-2.153-1.933h-3.456v6.837h1.4v-2.675m6.779 2.675h1.429v-2.56l2.285-4.277h-1.618l-1.353 2.971-1.418-2.97h-1.686l2.361 4.256v2.58"/></g></svg>