<?xml version="1.0" encoding="UTF-8" standalone="no"?>
<svg
   width="20"
   height="20"
   viewBox="0 0 5.292 5.292"
   version="1.1"
   xmlns="http://www.w3.org/2000/svg">
  <path
     style="fill:#f0f6fc;fill-opacity:0.6;stroke-width:0.00129887"
     d="M 3.2244035,0 C 3.0156605,0 2.8962201,0.0552706 2.7662486,0.1400931 v 0.001295 L 2.4459238,0.1529395 c -0.01577,0.001295 -0.027571,0.008987 -0.027571,0.0269878 0.00132,0.1130794 0.023629,0.1863505 0.1063427,0.2454543 -0.010505,0.0629888 -0.00397,0.0951048 0.062975,0.1477854 0.00659,-0.0513856 0.027598,-0.0745143 0.060435,-0.0963739 -0.00397,0.0231287 0.00262,0.0501165 0.00786,0.064232 0.013124,0.036001 0.077448,0.0372701 0.094515,0.0115773 0.015744,0.0372442 0.048581,0.0385392 0.074855,0.0385392 0.027571,0 0.08663,0.0257187 0.095812,0.007744 0.017596,0.0236208 0.023153,0.0459466 0.023444,0.0687386 C 2.8684371,0.6453503 2.7502667,0.659932 2.6401931,0.6425531 2.3946973,0.603988 2.3644799,0.5358969 2.3644799,0.4857804 2.3631569,0.4330998 2.3146293,0.4305098 2.3146293,0.4870754 2.3158465,0.7976164 2.7590515,0.672105 2.938609,0.7219884 2.9351428,0.7427861 2.93165,0.7644644 2.93165,0.7890694 2.930327,0.7453761 2.8266038,0.7376579 2.8030015,0.774928 2.7767532,0.7466711 2.6841167,0.7430192 2.6841167,0.7879816 2.6476019,0.7704732 2.6554341,0.7486136 2.6506978,0.7389529 c -0.03281,0.0205387 -0.052497,0.0359751 -0.047231,0.1092203 -0.014447,0.001295 -0.028921,0.00259 -0.042045,0.003885 0.00132,0.0847966 0.039425,0.1079253 0.3492456,0.1015021 0.00788,0.0848225 -0.078772,0.132349 -0.1430957,0.1722091 -0.1082479,0.060425 -0.220306,0.124579 -0.3119634,0.2085986 -0.00333,0.00303 -0.032043,-0.00433 -0.065965,-0.013623 -6.086e-4,-2.59e-4 -0.00116,-2.59e-4 -0.00177,-4.662e-4 C 2.3529698,1.3106954 2.3152114,1.3004908 2.281766,1.292928 1.9495871,1.2125603 1.6878448,1.2099703 1.5807083,1.046101 1.427108,0.9317266 1.5828251,0.8873081 1.3977109,0.7536641 1.2981684,0.6947157 1.1302532,0.9684787 1.1614496,1.0305351 1.5592492,1.3812988 1.0380931,1.1790716 2.1549432,1.9550874 c 0.020745,0.030821 0.046887,0.069153 0.045829,0.069671 C 2.0355031,2.1061624 1.823876,2.2136989 1.6726306,2.282308 1.6240506,2.304168 1.4979946,2.334989 1.4717463,2.291298 1.2761011,1.9452481 1.0093578,2.324062 1.0686547,2.4352243 1.3549254,2.6411552 1.4270818,2.691194 1.7591548,2.7355607 c 0.2782798,0.00171 0.4328856,-0.023647 0.5965143,-0.075032 l 0.031143,0.053561 C 2.4252056,2.8832916 2.6458291,3.1408671 2.5745194,3.1921232 2.1531175,3.3874351 1.9955746,3.5827729 1.8944974,3.7845339 1.7829156,4.0273982 1.8038984,4.3036994 1.8511559,4.5594101 1.8603376,4.6018343 1.81308,4.6223989 1.7776501,4.6095266 1.6804889,4.5876929 1.6266693,4.4925881 1.5334772,4.4578821 1.4914587,4.4399075 1.4363161,4.4193429 1.390355,4.4270611 1.315526,4.4399071 1.2354582,4.8100185 1.311584,4.8459936 1.4533832,4.9141106 1.60828,4.9282256 1.7658228,5.0078945 1.869546,5.0490235 1.9693002,5.1158457 2.0874706,5.0978455 2.154414,5.091422 2.2214107,5.0464596 2.2279728,4.9770476 2.2870315,4.7277601 2.3697455,4.4630362 2.5640413,4.2831348 2.6572598,4.1931841 2.7780497,4.121208 2.8975166,4.0659633 c 0.028233,0.00129 0.027095,-0.030199 0.068981,-0.00137 0.094012,0.2801085 0.2547568,0.4189584 0.4810428,0.6387458 0.034133,0.033411 0.03154,0.096374 -0.018337,0.1156694 -0.065621,0.032116 -0.1431222,0.033411 -0.217951,0.03727 -0.080094,0.00383 -0.019686,0.4382021 0.098458,0.434343 C 3.5171569,5.2841957 3.7324619,5.1261539 3.8571679,4.9706503 3.909691,4.9063924 3.9727187,4.8421345 4.0225958,4.7791716 4.0843006,4.7007723 4.0173303,4.6095266 3.9989671,4.5375764 3.9477405,4.3319822 3.9241382,3.7408406 3.9215186,3.6586081 l 0.073506,0.0013 0.010478,-0.1490545 C 3.7862816,3.2448556 3.821738,2.8284872 3.7311654,2.5599042 3.695709,2.4506839 3.6562836,2.3375786 3.6562836,2.2219092 c 0,-0.1567468 0.1811981,-0.4510226 0.177282,-0.7131824 C 3.8322426,1.3982115 3.7692413,1.2542852 3.7705379,1.1887323 3.7718609,0.9985486 3.8834162,1.0397037 3.8807967,0.6438999 3.8794737,0.5346796 3.866376,0.4537162 3.8374817,0.3419059 4.0331005,0.1401449 3.7639758,-0.0616161 3.6090525,0.0643356 3.4843201,0.0322196 3.4685499,7.77e-5 3.224377,7.77e-5 Z"
     id="path2" />
</svg>
