<svg xmlns="http://www.w3.org/2000/svg" version="1.2" width="58.658" height="57.436" viewBox="0 0 1551.993 1519.661" preserveAspectRatio="xMidYMid" fill-rule="evenodd" stroke-width="28.222" stroke-linejoin="round"><g class="SlideGroup"><path d="M482.413 64.66Q625.973-.005 776-.005t293.587 64.667q143.56 63.373 248.32 169.427 106.053 104.76 169.426 248.32Q1552 625.968 1552 775.994v388q0 12.934-10.347 23.28-9.053 9.054-21.986 9.054H1455q-12.933 0-23.28-9.054-9.053-10.346-9.053-23.28v-388q0-164.253-91.827-298.76-90.533-135.8-237.973-209.52T776 193.994q-169.427 0-316.867 73.72-147.44 73.72-239.266 209.52-90.534 134.507-90.534 298.76v388q0 12.934-10.346 23.28-9.054 9.054-21.987 9.054H32.333q-12.933 0-23.28-9.054Q0 1176.928 0 1163.994v-388q0-150.026 63.373-293.586 64.667-143.56 169.427-248.32Q338.853 128.034 482.413 64.66z"/><path d="M284.533 872.994h206.934q10.346 0 18.106 7.76 7.76 7.76 7.76 18.107v594.933q0 10.347-7.76 18.107t-18.106 7.76H284.533q-10.346 0-18.106-7.76-7.76-7.76-7.76-18.107V898.861q0-10.347 7.76-18.107t18.106-7.76zM1060.533 872.994h206.934q10.346 0 18.106 7.76 7.76 7.76 7.76 18.107v594.933q0 10.347-7.76 18.107t-18.106 7.76h-206.934q-10.346 0-18.106-7.76-7.76-7.76-7.76-18.107V898.861q0-10.347 7.76-18.107t18.106-7.76z"/></g></svg>